<svg fill="#FFFFFF" xmlns="http://www.w3.org/2000/svg" xmlns:xlink="http://www.w3.org/1999/xlink" version="1.1" x="0px" y="0px" viewBox="0 0 100 100" enable-background="new 0 0 100 100" xml:space="preserve"><path d="M91.925,5.351c-0.687-0.551-1.688-0.44-2.237,0.245L41.7,65.438L25.216,50.6c-0.656-0.589-1.661-0.535-2.248,0.118  c-0.588,0.653-0.535,1.659,0.119,2.248l17.02,15.319c0.462,0.417,1.064,0.646,1.679,0.646c0.064,0,0.131-0.004,0.195-0.01  c0.682-0.055,1.319-0.395,1.752-0.933L92.17,7.588C92.721,6.901,92.609,5.9,91.925,5.351z"></path><path d="M87.506,33.877c-0.879,0-1.593,0.714-1.593,1.593v50.222c0,3.377-2.747,6.125-6.125,6.125h-63  c-3.377,0-6.125-2.748-6.125-6.125v-63c0-3.377,2.748-6.125,6.125-6.125h45.271c0.879,0,1.592-0.713,1.592-1.592  s-0.713-1.592-1.592-1.592H16.788c-5.133,0-9.309,4.176-9.309,9.309v63c0,5.133,4.176,9.309,9.309,9.309h63  c5.134,0,9.31-4.176,9.31-9.309V35.47C89.098,34.591,88.385,33.877,87.506,33.877z"></path></svg>