<svg fill="#FFFFFF" xmlns="http://www.w3.org/2000/svg" xmlns:xlink="http://www.w3.org/1999/xlink" version="1.1" x="0px" y="0px" viewBox="0 0 100 100" enable-background="new 0 0 100 100" xml:space="preserve"><path d="M85.691,5H14.309C9.176,5,5,9.176,5,14.309v71.382C5,90.824,9.176,95,14.309,95h71.382C90.824,95,95,90.824,95,85.691  V14.309C95,9.176,90.824,5,85.691,5z M91.816,85.691c0,3.377-2.748,6.125-6.125,6.125H14.309c-3.377,0-6.125-2.748-6.125-6.125  V14.309c0-3.377,2.748-6.125,6.125-6.125h71.382c3.377,0,6.125,2.748,6.125,6.125V85.691L91.816,85.691z"></path></svg>