<svg fill="#FFFFFF" xmlns="http://www.w3.org/2000/svg" xmlns:xlink="http://www.w3.org/1999/xlink" version="1.1" x="0px" y="0px" viewBox="0 0 100 100" enable-background="new 0 0 100 100" xml:space="preserve"><path d="M58.59,89.479C62.15,93.039,66.883,95,71.917,95s9.769-1.961,13.329-5.521c3.563-3.563,5.521-8.295,5.521-13.328  c0-5.032-1.963-9.766-5.526-13.326L55.02,32.694c-2.416-2.415-5.627-3.745-9.045-3.745c-0.001,0-0.002,0-0.003,0  c-3.418,0.001-6.63,1.331-9.043,3.746c-2.417,2.416-3.749,5.628-3.749,9.046s1.332,6.63,3.749,9.045l20.409,20.411  c0.622,0.621,1.63,0.621,2.252,0c0.622-0.622,0.622-1.631,0-2.252l-20.41-20.41c-1.816-1.814-2.815-4.228-2.815-6.794  c0-2.567,1-4.98,2.816-6.795c1.813-1.813,4.225-2.813,6.792-2.813c0,0,0.001,0,0.002,0c2.567,0,4.98,0.999,6.795,2.814  l30.223,30.131c2.962,2.959,4.593,6.891,4.594,11.074c0,4.183-1.63,8.115-4.591,11.074c-2.96,2.961-6.896,4.59-11.078,4.59  s-8.117-1.629-11.075-4.59L18.755,45.142c-4.088-4.088-6.34-9.525-6.34-15.308c0-5.784,2.252-11.22,6.34-15.31  c4.089-4.088,9.526-6.34,15.309-6.341c5.783,0,11.22,2.252,15.309,6.341l32.316,32.319c0.623,0.622,1.631,0.621,2.252,0  c0.621-0.622,0.621-1.63,0-2.251L51.624,12.273C46.934,7.583,40.698,5,34.064,5c-6.633,0-12.87,2.583-17.56,7.273  S9.232,23.2,9.232,29.833s2.583,12.869,7.273,17.559L58.59,89.479z"></path></svg>