<svg fill="#FFFFFF" xmlns="http://www.w3.org/2000/svg" xmlns:xlink="http://www.w3.org/1999/xlink" version="1.1" x="0px" y="0px" viewBox="0 0 100 100" enable-background="new 0 0 100 100" xml:space="preserve"><path d="M14.332,83.916h71.336c5.146,0,9.332-4.188,9.332-9.332V25.416c0-5.146-4.186-9.332-9.332-9.332H14.332  C9.186,16.084,5,20.271,5,25.416v49.168C5,79.729,9.186,83.916,14.332,83.916z M85.668,80.725H14.332  c-3.387,0-6.141-2.755-6.141-6.141v-1.509l24.57-32.088c0.942-1.229,2.159-1.906,3.43-1.906h0.002  c1.271,0.002,2.489,0.682,3.43,1.913L65.352,74.71c0.313,0.411,0.787,0.628,1.27,0.628c0.337,0,0.679-0.105,0.968-0.328  c0.7-0.533,0.834-1.535,0.3-2.236l-6.979-9.145l8.441-11.064c0.938-1.231,2.157-1.91,3.428-1.912c0.003,0,0.003,0,0.005,0  c1.271,0,2.487,0.678,3.43,1.906l15.597,20.362v1.663C91.809,77.97,89.055,80.725,85.668,80.725z M14.332,19.275h71.336  c3.387,0,6.141,2.755,6.141,6.141v42.259L78.746,50.617c-1.561-2.035-3.678-3.156-5.963-3.156c-0.002,0-0.004,0-0.008,0  c-2.287,0.003-4.404,1.127-5.961,3.167l-7.912,10.371L42.16,39.058c-1.557-2.04-3.676-3.165-5.963-3.167c-0.002,0-0.004,0-0.006,0  c-2.287,0-4.404,1.121-5.962,3.157L8.191,67.828V25.416C8.191,22.03,10.945,19.275,14.332,19.275z"></path><path d="M75.507,42.852c5.136,0,9.312-4.178,9.312-9.313c0-5.136-4.176-9.313-9.312-9.313s-9.313,4.178-9.313,9.313  C66.193,38.674,70.371,42.852,75.507,42.852z M75.507,27.418c3.375,0,6.119,2.746,6.119,6.121s-2.744,6.12-6.119,6.12  s-6.12-2.745-6.12-6.12S72.132,27.418,75.507,27.418z"></path></svg>