<svg fill="#FFFFFF" xmlns="http://www.w3.org/2000/svg" xmlns:xlink="http://www.w3.org/1999/xlink" version="1.1" x="0px" y="0px" viewBox="0 0 100 100" enable-background="new 0 0 100 100" xml:space="preserve"><path d="M88.633,9.08L44.209,25.432L9.521,38.199c-3.642,1.341-4.383,3.522-4.501,4.702c-0.118,1.182,0.179,3.465,3.482,5.498  l23.464,14.439v22.826c0,3.794,1.448,5.111,2.663,5.547c0.319,0.115,0.688,0.193,1.104,0.193c1.168,0,2.7-0.617,4.481-2.777  l11.334-13.738l12.396,7.627c0.867,0.533,1.824,0.808,2.769,0.808c0.533,0,1.063-0.089,1.567-0.265  c1.398-0.492,2.51-1.636,3.046-3.137l10.153-28.429l13.06-36.566c1.062-2.972,0.055-4.57-0.64-5.258  C93.203,8.981,91.6,7.988,88.633,9.08z M8.4,43.239c0.051-0.506,0.68-1.258,2.295-1.852L45.384,28.62l42.828-15.765L33.5,59.793  L10.283,45.507C8.819,44.605,8.351,43.744,8.4,43.239z M37.596,86.467c-0.915,1.107-1.563,1.459-1.808,1.524  c-0.147-0.207-0.424-0.89-0.424-2.326V64.93l6.749,4.153c0.001,0.001,0.002,0.001,0.003,0.001l6.513,4.009L37.596,86.467z   M68.127,78.779c-0.193,0.539-0.538,0.922-0.973,1.074c-0.438,0.151-0.942,0.068-1.43-0.229L43.898,66.193  c-0.001-0.002-0.003-0.002-0.004-0.004l-7.357-4.526l54.359-46.637L78.279,50.352L68.127,78.779z"></path></svg>